<svg width="45" height="45" viewBox="0 0 45 45" fill="none" xmlns="http://www.w3.org/2000/svg">
<circle cx="22.5" cy="22.5" r="21.5" fill="white" stroke="#66C05D" stroke-width="2"/>
<path d="M30.4309 15H17.5691C15.0457 15 13 16.9711 13 19.4025V25.5975C13 28.0289 15.0457 30 17.5691 30H30.4309C32.9543 30 35 28.0289 35 25.5975V19.4025C35 16.9711 32.9543 15 30.4309 15ZM27.3408 22.8014L21.325 25.566C21.1647 25.6396 20.9795 25.527 20.9795 25.3559V19.654C20.9795 19.4805 21.1695 19.368 21.3302 19.4464L27.346 22.3838C27.5249 22.4711 27.5218 22.7183 27.3408 22.8014Z" fill="#66C05D"/>
</svg>
